<svg width="80" height="52" viewBox="0 0 80 52" fill="none" xmlns="http://www.w3.org/2000/svg">
<path d="M6.392 20.012C5.624 20.012 4.964 19.736 4.412 19.184C3.86 18.632 3.584 17.972 3.584 17.204C3.584 16.412 3.86 15.752 4.412 15.224C4.964 14.672 5.624 14.396 6.392 14.396C7.184 14.396 7.844 14.672 8.372 15.224C8.924 15.752 9.2 16.412 9.2 17.204C9.2 17.972 8.924 18.632 8.372 19.184C7.844 19.736 7.184 20.012 6.392 20.012ZM2.792 48.704C2.336 48.704 1.868 48.668 1.388 48.596C0.908 48.548 0.524 48.476 0.236 48.38V44.6C0.668 44.696 1.196 44.744 1.82 44.744C2.54 44.744 3.068 44.588 3.404 44.276C3.764 43.988 3.944 43.508 3.944 42.836V22.244H8.876V43.124C8.876 44.9 8.348 46.268 7.292 47.228C6.236 48.212 4.736 48.704 2.792 48.704ZM21.8771 41.36C20.0051 41.36 18.3131 40.928 16.8011 40.064C15.2891 39.2 14.0891 38.036 13.2011 36.572C12.3131 35.108 11.8691 33.464 11.8691 31.64C11.8691 29.816 12.3011 28.172 13.1651 26.708C14.0531 25.22 15.2531 24.044 16.7651 23.18C18.3011 22.316 20.0051 21.884 21.8771 21.884C23.7491 21.884 25.4411 22.316 26.9531 23.18C28.4891 24.044 29.6891 25.22 30.5531 26.708C31.4411 28.172 31.8851 29.816 31.8851 31.64C31.8851 33.464 31.4411 35.108 30.5531 36.572C29.6891 38.036 28.5011 39.2 26.9891 40.064C25.4771 40.928 23.7731 41.36 21.8771 41.36ZM21.8771 37.076C22.8611 37.076 23.7371 36.836 24.5051 36.356C25.2971 35.876 25.9211 35.228 26.3771 34.412C26.8571 33.572 27.0971 32.648 27.0971 31.64C27.0971 30.608 26.8571 29.684 26.3771 28.868C25.9211 28.052 25.2971 27.404 24.5051 26.924C23.7371 26.42 22.8611 26.168 21.8771 26.168C20.9171 26.168 20.0411 26.42 19.2491 26.924C18.4571 27.404 17.8331 28.052 17.3771 28.868C16.9211 29.684 16.6931 30.608 16.6931 31.64C16.6931 32.648 16.9211 33.572 17.3771 34.412C17.8331 35.228 18.4571 35.876 19.2491 36.356C20.0411 36.836 20.9171 37.076 21.8771 37.076ZM34.9167 41V15.8L39.8487 14.972V23.756C41.3367 22.58 43.0887 21.992 45.1047 21.992C46.8807 21.992 48.4887 22.424 49.9287 23.288C51.3687 24.152 52.5087 25.316 53.3487 26.78C54.2127 28.22 54.6447 29.84 54.6447 31.64C54.6447 33.44 54.2127 35.072 53.3487 36.536C52.4847 37.976 51.3207 39.128 49.8567 39.992C48.3927 40.832 46.7607 41.252 44.9607 41.252C44.0247 41.252 43.1127 41.12 42.2247 40.856C41.3367 40.592 40.5207 40.208 39.7767 39.704V41H34.9167ZM44.3127 37.076C45.3447 37.076 46.2687 36.836 47.0847 36.356C47.9247 35.876 48.5847 35.228 49.0647 34.412C49.5447 33.596 49.7847 32.672 49.7847 31.64C49.7847 30.608 49.5447 29.684 49.0647 28.868C48.5847 28.028 47.9247 27.38 47.0847 26.924C46.2687 26.444 45.3447 26.204 44.3127 26.204C43.4007 26.204 42.5607 26.36 41.7927 26.672C41.0487 26.96 40.4007 27.404 39.8487 28.004V35.312C40.3767 35.864 41.0247 36.296 41.7927 36.608C42.5847 36.92 43.4247 37.076 44.3127 37.076ZM53.6772 41L63.2892 27.968L54.1812 15.8H60.4092L66.3852 24.08L72.3252 15.8H78.3372L69.3732 27.968L79.0932 41H72.8652L66.2772 31.856L59.6892 41H53.6772Z" fill="white"/>
<path d="M12.0054 11.0156L11.475 10.4853C11.1821 10.7782 11.1821 11.2531 11.475 11.546L12.0054 11.0156ZM16.1252 6.89582L16.6555 6.36549C16.3626 6.07259 15.8877 6.07259 15.5948 6.36549L16.1252 6.89582ZM20.245 11.0156L20.7753 11.546C21.0682 11.2531 21.0682 10.7782 20.7753 10.4853L20.245 11.0156ZM16.1252 15.1354L15.5948 15.6658C15.8877 15.9587 16.3626 15.9587 16.6555 15.6658L16.1252 15.1354ZM17.8908 16.9011L17.3605 16.3707C17.0676 16.6636 17.0676 17.1385 17.3605 17.4314L17.8908 16.9011ZM22.0106 12.7813L22.541 12.2509C22.2481 11.958 21.7732 11.958 21.4803 12.2509L22.0106 12.7813ZM26.1304 16.9011L26.6608 17.4314C26.9537 17.1385 26.9537 16.6636 26.6608 16.3707L26.1304 16.9011ZM22.0106 21.0209L21.4803 21.5512C21.7732 21.8441 22.2481 21.8441 22.541 21.5512L22.0106 21.0209ZM17.8908 5.13018L17.3605 4.59985C17.0676 4.89275 17.0676 5.36762 17.3605 5.66051L17.8908 5.13018ZM22.0106 1.01038L22.541 0.480046C22.2481 0.187153 21.7732 0.187152 21.4803 0.480046L22.0106 1.01038ZM26.1304 5.13018L26.6608 5.66051C26.9537 5.36762 26.9537 4.89275 26.6608 4.59985L26.1304 5.13018ZM22.0106 9.24999L21.4803 9.78032C21.7732 10.0732 22.2481 10.0732 22.541 9.78032L22.0106 9.24999ZM23.7763 11.0156L23.2459 10.4853C22.953 10.7782 22.953 11.2531 23.2459 11.546L23.7763 11.0156ZM27.8961 6.89582L28.4264 6.36549C28.1335 6.07259 27.6586 6.07259 27.3657 6.36549L27.8961 6.89582ZM32.0159 11.0156L32.5462 11.546C32.8391 11.2531 32.8391 10.7782 32.5462 10.4853L32.0159 11.0156ZM27.8961 15.1354L27.3657 15.6658C27.6586 15.9587 28.1335 15.9587 28.4264 15.6658L27.8961 15.1354ZM12.5357 11.546L16.6555 7.42615L15.5948 6.36549L11.475 10.4853L12.5357 11.546ZM15.5948 7.42615L19.7147 11.546L20.7753 10.4853L16.6555 6.36549L15.5948 7.42615ZM19.7147 10.4853L15.5948 14.6051L16.6555 15.6658L20.7753 11.546L19.7147 10.4853ZM16.6555 14.6051L12.5357 10.4853L11.475 11.546L15.5948 15.6658L16.6555 14.6051ZM18.4211 17.4314L22.541 13.3116L21.4803 12.2509L17.3605 16.3707L18.4211 17.4314ZM21.4803 13.3116L25.6001 17.4314L26.6608 16.3707L22.541 12.2509L21.4803 13.3116ZM25.6001 16.3707L21.4803 20.4905L22.541 21.5512L26.6608 17.4314L25.6001 16.3707ZM22.541 20.4905L18.4211 16.3707L17.3605 17.4314L21.4803 21.5512L22.541 20.4905ZM18.4211 5.66051L22.541 1.54071L21.4803 0.480046L17.3605 4.59985L18.4211 5.66051ZM21.4803 1.54071L25.6001 5.66051L26.6608 4.59985L22.541 0.480046L21.4803 1.54071ZM25.6001 4.59985L21.4803 8.71966L22.541 9.78032L26.6608 5.66051L25.6001 4.59985ZM22.541 8.71966L18.4211 4.59985L17.3605 5.66051L21.4803 9.78032L22.541 8.71966ZM24.3066 11.546L28.4264 7.42615L27.3657 6.36549L23.2459 10.4853L24.3066 11.546ZM27.3657 7.42615L31.4855 11.546L32.5462 10.4853L28.4264 6.36549L27.3657 7.42615ZM31.4855 10.4853L27.3657 14.6051L28.4264 15.6658L32.5462 11.546L31.4855 10.4853ZM28.4264 14.6051L24.3066 10.4853L23.2459 11.546L27.3657 15.6658L28.4264 14.6051Z" fill="white"/>
</svg>
